<svg xmlns="http://www.w3.org/2000/svg" viewBox="0 0 480 360" role="img" aria-label="テイクアウト向け・店頭黒板とスマートフォン用メニューのデザイン例"><rect width="480" height="360" fill="#f4eee4"/><g><rect x="30" y="34" width="250" height="292" rx="6" fill="#17140f" opacity=".10" transform="translate(4 6)"/><rect x="30" y="34" width="250" height="292" rx="6" fill="#26332e" stroke="#3d4c45" stroke-width="1.5"/></g><rect x="44" y="48" width="222" height="264" rx="3" fill="none" stroke="#c8a25a" stroke-width="1.5" opacity=".6"/><text x="155" y="86" font-family="'Noto Sans JP',sans-serif" font-size="15" font-weight="700" fill="#c8a25a" text-anchor="middle" letter-spacing="6">TAKE OUT</text><text x="155" y="114" font-family="'Noto Serif JP',serif" font-size="16" font-weight="700" fill="#f0ece2" text-anchor="middle" letter-spacing="0">本日のお弁当</text><rect x="70" y="148" width="104" height="8" rx="4.0" fill="#8fa39a" opacity="0.8"/><rect x="196" y="148" width="40" height="8" rx="4.0" fill="#c8a25a" opacity="0.85"/><rect x="70" y="162" width="70" height="5" rx="2.5" fill="#5e6f68" opacity="0.9"/><rect x="70" y="186" width="92" height="8" rx="4.0" fill="#8fa39a" opacity="0.8"/><rect x="196" y="186" width="40" height="8" rx="4.0" fill="#c8a25a" opacity="0.85"/><rect x="70" y="200" width="70" height="5" rx="2.5" fill="#5e6f68" opacity="0.9"/><rect x="70" y="224" width="80" height="8" rx="4.0" fill="#8fa39a" opacity="0.8"/><rect x="196" y="224" width="40" height="8" rx="4.0" fill="#c8a25a" opacity="0.85"/><rect x="70" y="238" width="70" height="5" rx="2.5" fill="#5e6f68" opacity="0.9"/><rect x="70" y="262" width="68" height="8" rx="4.0" fill="#8fa39a" opacity="0.8"/><rect x="196" y="262" width="40" height="8" rx="4.0" fill="#c8a25a" opacity="0.85"/><rect x="70" y="276" width="70" height="5" rx="2.5" fill="#5e6f68" opacity="0.9"/><rect x="316" y="26" width="136" height="308" rx="18" fill="#17140f"/><rect x="322" y="32" width="124" height="296" rx="14" fill="#ffffff"/><rect x="360" y="38" width="48" height="6" rx="3" fill="#e2d9c9"/><rect x="322" y="52" width="124" height="66" fill="#e9efe9"/><path d="M322 118V96l30-18 26 16 24-14 44 24v14z" fill="#a8bcae"/><text x="384" y="138" font-family="'Noto Sans JP',sans-serif" font-size="9" font-weight="700" fill="#3d3730" text-anchor="middle" letter-spacing="0">ご注文はこちら</text><rect x="334" y="152" width="100" height="34" rx="4" fill="#f4eee4"/><rect x="340" y="158" width="22" height="22" rx="3" fill="#d6cdbd"/><rect x="370" y="161" width="44" height="6" rx="3.0" fill="#bcb2a1" opacity="1.0"/><rect x="370" y="172" width="26" height="5" rx="2.5" fill="#d0c7b6" opacity="1.0"/><rect x="334" y="196" width="100" height="34" rx="4" fill="#f4eee4"/><rect x="340" y="202" width="22" height="22" rx="3" fill="#d6cdbd"/><rect x="370" y="205" width="44" height="6" rx="3.0" fill="#bcb2a1" opacity="1.0"/><rect x="370" y="216" width="26" height="5" rx="2.5" fill="#d0c7b6" opacity="1.0"/><rect x="334" y="240" width="100" height="34" rx="4" fill="#f4eee4"/><rect x="340" y="246" width="22" height="22" rx="3" fill="#d6cdbd"/><rect x="370" y="249" width="44" height="6" rx="3.0" fill="#bcb2a1" opacity="1.0"/><rect x="370" y="260" width="26" height="5" rx="2.5" fill="#d0c7b6" opacity="1.0"/><rect x="334" y="288" width="100" height="26" rx="4" fill="#b33a2b"/><text x="384" y="305" font-family="'Noto Sans JP',sans-serif" font-size="10" font-weight="700" fill="#ffffff" text-anchor="middle" letter-spacing="0">注文する</text></svg>
